<svg width="1280" height="678" xmlns="http://www.w3.org/2000/svg"><g><path d="M-69,-45L-112,282L-43,123Z" fill="#edeffb" stroke="#edeffb"/><path d="M-69,-45L-43,123L66,90Z" fill="#f0f1f9" stroke="#f0f1f9"/><path d="M-69,-45L66,90L63,-51Z" fill="#f4f2f8" stroke="#f4f2f8"/><path d="M-69,-45L63,-51L228,-65Z" fill="#f0f0f7" stroke="#f0f0f7"/><path d="M63,-51L66,90L225,85Z" fill="#e7ebf6" stroke="#e7ebf6"/><path d="M63,-51L225,85L228,-65Z" fill="#e8ebf4" stroke="#e8ebf4"/><path d="M228,-65L225,85L393,63Z" fill="#dbe3f1" stroke="#dbe3f1"/><path d="M228,-65L393,63L433,-38Z" fill="#d9e2ef" stroke="#d9e2ef"/><path d="M228,-65L433,-38L641,-80Z" fill="#d2deed" stroke="#d2deed"/><path d="M228,-65L641,-80L954,-106Z" fill="#b9d4e7" stroke="#b9d4e7"/><path d="M228,-65L954,-106L1233,-132Z" fill="#9cc9e0" stroke="#9cc9e0"/><path d="M433,-38L393,63L516,65Z" fill="#ccdbed" stroke="#ccdbed"/><path d="M433,-38L516,65L544,-41Z" fill="#c9daeb" stroke="#c9daeb"/><path d="M433,-38L544,-41L641,-80Z" fill="#c3d8e9" stroke="#c3d8e9"/><path d="M544,-41L516,65L621,32Z" fill="#bdd6e9" stroke="#bdd6e9"/><path d="M544,-41L621,32L641,-80Z" fill="#b9d4e7" stroke="#b9d4e7"/><path d="M641,-80L621,32L778,-71Z" fill="#aed0e5" stroke="#aed0e5"/><path d="M641,-80L778,-71L954,-106Z" fill="#9ec9e1" stroke="#9ec9e1"/><path d="M778,-71L621,32L802,37Z" fill="#a6cde3" stroke="#a6cde3"/><path d="M778,-71L802,37L954,-106Z" fill="#96c6df" stroke="#96c6df"/><path d="M954,-106L802,37L988,81Z" fill="#8cc2dd" stroke="#8cc2dd"/><path d="M954,-106L988,81L1168,-78Z" fill="#80bbd9" stroke="#80bbd9"/><path d="M954,-106L1168,-78L1233,-132Z" fill="#80b7d6" stroke="#80b7d6"/><path d="M1168,-78L988,81L1118,108Z" fill="#7bb6d7" stroke="#7bb6d7"/><path d="M1168,-78L1118,108L1283,56Z" fill="#7cb0d3" stroke="#7cb0d3"/><path d="M1168,-78L1283,56L1233,-132Z" fill="#80b0d2" stroke="#80b0d2"/><path d="M1233,-132L1283,56L1368,-76Z" fill="#80acd0" stroke="#80acd0"/><path d="M1368,-76L1283,56L1414,48Z" fill="#7fa8ce" stroke="#7fa8ce"/><path d="M-43,123L-112,282L107,168Z" fill="#dfe8f9" stroke="#dfe8f9"/><path d="M-43,123L107,168L66,90Z" fill="#e2e9f8" stroke="#e2e9f8"/><path d="M66,90L107,168L225,85Z" fill="#dce5f5" stroke="#dce5f5"/><path d="M225,85L107,168L202,261Z" fill="#d2dff4" stroke="#d2dff4"/><path d="M225,85L202,261L392,196Z" fill="#c8daf1" stroke="#c8daf1"/><path d="M225,85L392,196L393,63Z" fill="#ccdbf0" stroke="#ccdbf0"/><path d="M393,63L392,196L516,65Z" fill="#c4d7ed" stroke="#c4d7ed"/><path d="M516,65L392,196L491,238Z" fill="#b8d1ec" stroke="#b8d1ec"/><path d="M516,65L491,238L705,181Z" fill="#a9cbe8" stroke="#a9cbe8"/><path d="M516,65L705,181L621,32Z" fill="#accde7" stroke="#accde7"/><path d="M621,32L705,181L802,37Z" fill="#a0c9e4" stroke="#a0c9e4"/><path d="M802,37L705,181L849,179Z" fill="#8fc1e1" stroke="#8fc1e1"/><path d="M802,37L849,179L988,81Z" fill="#85bede" stroke="#85bede"/><path d="M988,81L849,179L918,276Z" fill="#75b6dd" stroke="#75b6dd"/><path d="M988,81L918,276L1094,169Z" fill="#6ab2da" stroke="#6ab2da"/><path d="M988,81L1094,169L1118,108Z" fill="#71b2d8" stroke="#71b2d8"/><path d="M1118,108L1094,169L1235,198Z" fill="#6caad5" stroke="#6caad5"/><path d="M1118,108L1235,198L1283,56Z" fill="#71a9d3" stroke="#71a9d3"/><path d="M1283,56L1235,198L1444,203Z" fill="#6da1cf" stroke="#6da1cf"/><path d="M1283,56L1444,203L1414,48Z" fill="#73a0cd" stroke="#73a0cd"/><path d="M1414,48L1444,203L1469,316Z" fill="#6897cb" stroke="#6897cb"/><path d="M-112,282L-31,782L-77,490Z" fill="#80c2e9" stroke="#80c2e9"/><path d="M-112,282L-77,490L-76,355Z" fill="#b0d6f2" stroke="#b0d6f2"/><path d="M-112,282L-76,355L109,331Z" fill="#bcd9f3" stroke="#bcd9f3"/><path d="M-112,282L109,331L107,168Z" fill="#cbdef6" stroke="#cbdef6"/><path d="M107,168L109,331L202,261Z" fill="#c5daf3" stroke="#c5daf3"/><path d="M202,261L109,331L250,398Z" fill="#a8ceed" stroke="#a8ceed"/><path d="M202,261L250,398L331,370Z" fill="#9ec8eb" stroke="#9ec8eb"/><path d="M202,261L331,370L392,196Z" fill="#b0cfed" stroke="#b0cfed"/><path d="M392,196L331,370L486,343Z" fill="#9fc6e9" stroke="#9fc6e9"/><path d="M392,196L486,343L491,238Z" fill="#a7caea" stroke="#a7caea"/><path d="M491,238L486,343L705,181Z" fill="#9ac4e7" stroke="#9ac4e7"/><path d="M705,181L486,343L723,405Z" fill="#7db9e1" stroke="#7db9e1"/><path d="M705,181L723,405L840,377Z" fill="#68b0dc" stroke="#68b0dc"/><path d="M705,181L840,377L849,179Z" fill="#7ab7e0" stroke="#7ab7e0"/><path d="M849,179L840,377L918,276Z" fill="#66afdb" stroke="#66afdb"/><path d="M918,276L840,377L995,399Z" fill="#47a3d5" stroke="#47a3d5"/><path d="M918,276L995,399L1094,169Z" fill="#51a7d6" stroke="#51a7d6"/><path d="M1094,169L995,399L1183,335Z" fill="#4ba0d2" stroke="#4ba0d2"/><path d="M1094,169L1183,335L1235,198Z" fill="#61a4d3" stroke="#61a4d3"/><path d="M1235,198L1183,335L1244,426Z" fill="#4596cc" stroke="#4596cc"/><path d="M1235,198L1244,426L1469,316Z" fill="#4791ca" stroke="#4791ca"/><path d="M1235,198L1469,316L1444,203Z" fill="#5f97cc" stroke="#5f97cc"/><path d="M-76,355L-77,490L109,331Z" fill="#a4cfef" stroke="#a4cfef"/><path d="M109,331L-77,490L37,564Z" fill="#8bc5ea" stroke="#8bc5ea"/><path d="M109,331L37,564L250,398Z" fill="#8cc3e9" stroke="#8cc3e9"/><path d="M250,398L37,564L245,577Z" fill="#6db7e2" stroke="#6db7e2"/><path d="M250,398L245,577L317,544Z" fill="#68b3e0" stroke="#68b3e0"/><path d="M250,398L317,544L331,370Z" fill="#7cbbe4" stroke="#7cbbe4"/><path d="M331,370L317,544L486,343Z" fill="#7bb9e3" stroke="#7bb9e3"/><path d="M486,343L317,544L523,620Z" fill="#5aabdc" stroke="#5aabdc"/><path d="M486,343L523,620L575,577Z" fill="#4aa4d8" stroke="#4aa4d8"/><path d="M486,343L575,577L666,486Z" fill="#52a8d9" stroke="#52a8d9"/><path d="M486,343L666,486L723,405Z" fill="#5dacdb" stroke="#5dacdb"/><path d="M723,405L666,486L792,476Z" fill="#40a1d5" stroke="#40a1d5"/><path d="M723,405L792,476L840,377Z" fill="#44a2d5" stroke="#44a2d5"/><path d="M840,377L792,476L995,399Z" fill="#389dd2" stroke="#389dd2"/><path d="M995,399L792,476L965,575Z" fill="#1c92cd" stroke="#1c92cd"/><path d="M995,399L965,575L1078,503Z" fill="#0d8cc9" stroke="#0d8cc9"/><path d="M995,399L1078,503L1183,335Z" fill="#2791cb" stroke="#2791cb"/><path d="M1183,335L1078,503L1244,426Z" fill="#248cc8" stroke="#248cc8"/><path d="M1244,426L1078,503L1292,491Z" fill="#1383c3" stroke="#1383c3"/><path d="M1244,426L1292,491L1469,316Z" fill="#2784c3" stroke="#2784c3"/><path d="M1469,316L1292,491L1419,559Z" fill="#197abe" stroke="#197abe"/><path d="M1469,316L1419,559L1427,666Z" fill="#0670b9" stroke="#0670b9"/><path d="M1469,316L1427,666L1436,880Z" fill="#0062b2" stroke="#0062b2"/><path d="M-77,490L-31,782L-41,642Z" fill="#7ab2e1" stroke="#7ab2e1"/><path d="M-77,490L-41,642L37,564Z" fill="#78bae4" stroke="#78bae4"/><path d="M37,564L-41,642L84,696Z" fill="#74aedf" stroke="#74aedf"/><path d="M37,564L84,696L207,681Z" fill="#6da9dc" stroke="#6da9dc"/><path d="M37,564L207,681L245,577Z" fill="#69abdd" stroke="#69abdd"/><path d="M245,577L207,681L409,701Z" fill="#5f9fd7" stroke="#5f9fd7"/><path d="M245,577L409,701L317,544Z" fill="#5ca3d9" stroke="#5ca3d9"/><path d="M317,544L409,701L523,620Z" fill="#549dd5" stroke="#549dd5"/><path d="M575,577L523,620L652,682Z" fill="#3d93cf" stroke="#3d93cf"/><path d="M575,577L652,682L666,486Z" fill="#3696d0" stroke="#3696d0"/><path d="M666,486L652,682L832,638Z" fill="#298fcc" stroke="#298fcc"/><path d="M666,486L832,638L792,476Z" fill="#2394cf" stroke="#2394cf"/><path d="M792,476L832,638L965,575Z" fill="#148bc9" stroke="#148bc9"/><path d="M965,575L832,638L1012,727Z" fill="#0a7cc2" stroke="#0a7cc2"/><path d="M965,575L1012,727L1163,660Z" fill="#0075be" stroke="#0075be"/><path d="M965,575L1163,660L1078,503Z" fill="#007dc1" stroke="#007dc1"/><path d="M1078,503L1163,660L1292,491Z" fill="#007bc0" stroke="#007bc0"/><path d="M1292,491L1163,660L1281,646Z" fill="#0070ba" stroke="#0070ba"/><path d="M1292,491L1281,646L1419,559Z" fill="#0070ba" stroke="#0070ba"/><path d="M1419,559L1281,646L1427,666Z" fill="#0066b4" stroke="#0066b4"/><path d="M-41,642L-31,782L84,696Z" fill="#76a7db" stroke="#76a7db"/><path d="M84,696L-31,782L29,845Z" fill="#749cd6" stroke="#749cd6"/><path d="M84,696L29,845L168,881Z" fill="#6f95d2" stroke="#6f95d2"/><path d="M84,696L168,881L207,681Z" fill="#6a99d4" stroke="#6a99d4"/><path d="M207,681L168,881L414,853Z" fill="#618dce" stroke="#618dce"/><path d="M207,681L414,853L409,701Z" fill="#5a91cf" stroke="#5a91cf"/><path d="M409,701L414,853L481,774Z" fill="#5288cb" stroke="#5288cb"/><path d="M409,701L481,774L523,620Z" fill="#4d90ce" stroke="#4d90ce"/><path d="M523,620L481,774L652,682Z" fill="#418ccc" stroke="#418ccc"/><path d="M652,682L481,774L701,788Z" fill="#3982c6" stroke="#3982c6"/><path d="M652,682L701,788L804,783Z" fill="#297bc3" stroke="#297bc3"/><path d="M652,682L804,783L832,638Z" fill="#237fc4" stroke="#237fc4"/><path d="M832,638L804,783L1012,727Z" fill="#1276bf" stroke="#1276bf"/><path d="M1012,727L804,783L977,858Z" fill="#0b6ab9" stroke="#0b6ab9"/><path d="M1012,727L977,858L1093,852Z" fill="#0062b4" stroke="#0062b4"/><path d="M1012,727L1093,852L1163,660Z" fill="#0066b7" stroke="#0066b7"/><path d="M1163,660L1093,852L1228,851Z" fill="#005db1" stroke="#005db1"/><path d="M1163,660L1228,851L1281,646Z" fill="#0062b4" stroke="#0062b4"/><path d="M1281,646L1228,851L1427,666Z" fill="#005db1" stroke="#005db1"/><path d="M1427,666L1228,851L1436,880Z" fill="#0050aa" stroke="#0050aa"/><path d="M168,881L1436,880L977,858Z" fill="#1563b7" stroke="#1563b7"/><path d="M168,881L977,858L414,853Z" fill="#4678c3" stroke="#4678c3"/><path d="M414,853L977,858L701,788Z" fill="#2c72bf" stroke="#2c72bf"/><path d="M414,853L701,788L481,774Z" fill="#447fc6" stroke="#447fc6"/><path d="M701,788L977,858L804,783Z" fill="#196dbc" stroke="#196dbc"/><path d="M977,858L1436,880L1093,852Z" fill="#0053ad" stroke="#0053ad"/><path d="M1093,852L1436,880L1228,851Z" fill="#004eaa" stroke="#004eaa"/></g></svg>